<svg xmlns="http://www.w3.org/2000/svg" xmlns:xlink="http://www.w3.org/1999/xlink" width="264" zoomAndPan="magnify" viewBox="0 0 198 44.999999" height="60" preserveAspectRatio="xMidYMid meet" version="1.0"><defs><g/><clipPath id="8c263f6759"><path d="M 2.210938 3 L 34.460938 3 L 34.460938 42 L 2.210938 42 Z M 2.210938 3 " clip-rule="nonzero"/></clipPath></defs><rect x="-19.8" width="237.6" fill="#ffffff" y="-4.5" height="53.999999" fill-opacity="1"/><rect x="-19.8" width="237.6" fill="#ffffff" y="-4.5" height="53.999999" fill-opacity="1"/><g fill="#000000" fill-opacity="1"><g transform="translate(38.012109, 31.499998)"><g><path d="M 0.910156 -5.855469 L 4.128906 -5.855469 C 4.222656 -5.136719 4.523438 -4.503906 5.027344 -3.960938 C 5.53125 -3.414062 6.199219 -2.996094 7.03125 -2.699219 C 7.863281 -2.402344 8.824219 -2.257812 9.910156 -2.257812 C 11.527344 -2.257812 12.808594 -2.507812 13.753906 -3.011719 C 14.695312 -3.515625 15.167969 -4.199219 15.167969 -5.0625 C 15.167969 -5.769531 14.894531 -6.296875 14.351562 -6.648438 C 13.808594 -7 12.824219 -7.265625 11.398438 -7.441406 L 7.511719 -7.945312 C 5.335938 -8.230469 3.757812 -8.773438 2.773438 -9.5625 C 1.789062 -10.355469 1.296875 -11.480469 1.296875 -12.9375 C 1.296875 -14.039062 1.628906 -14.996094 2.292969 -15.804688 C 2.957031 -16.613281 3.894531 -17.234375 5.113281 -17.675781 C 6.328125 -18.117188 7.753906 -18.335938 9.382812 -18.335938 C 11 -18.335938 12.433594 -18.097656 13.679688 -17.617188 C 14.929688 -17.136719 15.925781 -16.46875 16.667969 -15.613281 C 17.410156 -14.757812 17.816406 -13.753906 17.878906 -12.601562 L 14.664062 -12.601562 C 14.585938 -13.238281 14.316406 -13.792969 13.859375 -14.257812 C 13.402344 -14.71875 12.792969 -15.085938 12.023438 -15.347656 C 11.257812 -15.613281 10.351562 -15.742188 9.3125 -15.742188 C 7.839844 -15.742188 6.664062 -15.503906 5.785156 -15.023438 C 4.902344 -14.542969 4.464844 -13.886719 4.464844 -13.054688 C 4.464844 -12.414062 4.722656 -11.925781 5.242188 -11.578125 C 5.765625 -11.234375 6.671875 -10.976562 7.96875 -10.800781 L 11.902344 -10.246094 C 13.519531 -10.023438 14.796875 -9.722656 15.730469 -9.347656 C 16.667969 -8.972656 17.335938 -8.46875 17.734375 -7.835938 C 18.136719 -7.203125 18.335938 -6.390625 18.335938 -5.398438 C 18.335938 -4.246094 17.984375 -3.238281 17.28125 -2.375 C 16.574219 -1.511719 15.589844 -0.84375 14.316406 -0.371094 C 13.042969 0.101562 11.558594 0.335938 9.863281 0.335938 C 8.136719 0.335938 6.613281 0.0742188 5.292969 -0.445312 C 3.972656 -0.964844 2.929688 -1.6875 2.160156 -2.617188 C 1.390625 -3.542969 0.976562 -4.625 0.910156 -5.855469 Z M 0.910156 -5.855469 "/></g></g></g><g fill="#000000" fill-opacity="1"><g transform="translate(57.284142, 31.499998)"><g><path d="M 14.328125 0 L 13.800781 -5.039062 L 14.425781 -6.792969 L 13.800781 -8.519531 L 14.328125 -13.585938 L 17.542969 -13.585938 L 16.824219 -6.792969 L 17.542969 0 Z M 15.289062 -6.792969 C 14.984375 -5.367188 14.480469 -4.121094 13.777344 -3.046875 C 13.070312 -1.976562 12.203125 -1.144531 11.171875 -0.550781 C 10.140625 0.0390625 8.992188 0.335938 7.726562 0.335938 C 6.398438 0.335938 5.222656 0.0351562 4.199219 -0.5625 C 3.175781 -1.164062 2.375 -2 1.800781 -3.070312 C 1.222656 -4.144531 0.9375 -5.382812 0.9375 -6.792969 C 0.9375 -8.214844 1.222656 -9.460938 1.800781 -10.523438 C 2.375 -11.589844 3.175781 -12.421875 4.199219 -13.019531 C 5.222656 -13.621094 6.398438 -13.921875 7.726562 -13.921875 C 8.992188 -13.921875 10.140625 -13.625 11.171875 -13.03125 C 12.203125 -12.441406 13.074219 -11.613281 13.789062 -10.546875 C 14.5 -9.484375 15 -8.230469 15.289062 -6.792969 Z M 4.105469 -6.792969 C 4.105469 -5.878906 4.292969 -5.074219 4.667969 -4.378906 C 5.042969 -3.683594 5.558594 -3.140625 6.214844 -2.746094 C 6.871094 -2.355469 7.625 -2.160156 8.472656 -2.160156 C 9.335938 -2.160156 10.136719 -2.355469 10.871094 -2.746094 C 11.609375 -3.140625 12.261719 -3.683594 12.828125 -4.378906 C 13.394531 -5.074219 13.847656 -5.878906 14.183594 -6.792969 C 13.847656 -7.703125 13.394531 -8.507812 12.828125 -9.203125 C 12.261719 -9.898438 11.609375 -10.445312 10.871094 -10.835938 C 10.136719 -11.226562 9.335938 -11.425781 8.472656 -11.425781 C 7.625 -11.425781 6.871094 -11.226562 6.214844 -10.835938 C 5.558594 -10.445312 5.042969 -9.898438 4.667969 -9.203125 C 4.292969 -8.507812 4.105469 -7.703125 4.105469 -6.792969 Z M 4.105469 -6.792969 "/></g></g></g><g fill="#000000" fill-opacity="1"><g transform="translate(76.172179, 31.499998)"><g><path d="M 9.886719 -16.390625 C 8.71875 -16.390625 7.851562 -16.144531 7.285156 -15.648438 C 6.714844 -15.152344 6.433594 -14.34375 6.433594 -13.222656 L 6.433594 0 L 3.3125 0 L 3.3125 -12.9375 C 3.3125 -14.105469 3.53125 -15.128906 3.972656 -16.007812 C 4.410156 -16.886719 5.09375 -17.574219 6.011719 -18.070312 C 6.933594 -18.566406 8.105469 -18.816406 9.527344 -18.816406 C 10.214844 -18.816406 10.824219 -18.761719 11.351562 -18.648438 C 11.878906 -18.535156 12.398438 -18.390625 12.910156 -18.214844 L 12.910156 -15.769531 C 12.449219 -15.992188 11.96875 -16.152344 11.472656 -16.246094 C 10.976562 -16.34375 10.449219 -16.390625 9.886719 -16.390625 Z M 0.40625 -10.246094 L 0.40625 -12.648438 L 12.648438 -12.648438 L 12.648438 -10.246094 Z M 0.40625 -10.246094 "/></g></g></g><g fill="#000000" fill-opacity="1"><g transform="translate(88.436205, 31.499998)"><g><path d="M 9.070312 0.335938 C 7.488281 0.335938 6.078125 0.0351562 4.847656 -0.5625 C 3.617188 -1.164062 2.648438 -2 1.945312 -3.070312 C 1.238281 -4.144531 0.886719 -5.390625 0.886719 -6.816406 C 0.886719 -8.222656 1.21875 -9.460938 1.882812 -10.523438 C 2.546875 -11.589844 3.46875 -12.421875 4.644531 -13.019531 C 5.820312 -13.621094 7.167969 -13.921875 8.6875 -13.921875 C 10.207031 -13.921875 11.523438 -13.578125 12.636719 -12.898438 C 13.746094 -12.21875 14.609375 -11.265625 15.214844 -10.03125 C 15.824219 -8.800781 16.128906 -7.351562 16.128906 -5.6875 L 3.335938 -5.6875 L 3.335938 -8.0625 L 14.566406 -8.0625 L 13.007812 -7.175781 C 12.960938 -8.070312 12.746094 -8.839844 12.371094 -9.480469 C 11.996094 -10.121094 11.492188 -10.613281 10.859375 -10.957031 C 10.226562 -11.300781 9.480469 -11.472656 8.617188 -11.472656 C 7.703125 -11.472656 6.90625 -11.289062 6.226562 -10.921875 C 5.546875 -10.550781 5.015625 -10.035156 4.632812 -9.371094 C 4.246094 -8.707031 4.054688 -7.921875 4.054688 -7.007812 C 4.054688 -6 4.285156 -5.128906 4.738281 -4.390625 C 5.195312 -3.65625 5.84375 -3.09375 6.683594 -2.699219 C 7.523438 -2.308594 8.519531 -2.113281 9.671875 -2.113281 C 10.710938 -2.113281 11.777344 -2.277344 12.863281 -2.605469 C 13.953125 -2.933594 14.910156 -3.390625 15.742188 -3.984375 L 15.742188 -1.726562 C 14.910156 -1.089844 13.898438 -0.585938 12.707031 -0.214844 C 11.515625 0.152344 10.304688 0.335938 9.070312 0.335938 Z M 9.070312 0.335938 "/></g></g></g><g fill="#000000" fill-opacity="1"><g transform="translate(105.476239, 31.499998)"><g><path d="M 0.910156 -5.855469 L 4.128906 -5.855469 C 4.222656 -5.136719 4.523438 -4.503906 5.027344 -3.960938 C 5.53125 -3.414062 6.199219 -2.996094 7.03125 -2.699219 C 7.863281 -2.402344 8.824219 -2.257812 9.910156 -2.257812 C 11.527344 -2.257812 12.808594 -2.507812 13.753906 -3.011719 C 14.695312 -3.515625 15.167969 -4.199219 15.167969 -5.0625 C 15.167969 -5.769531 14.894531 -6.296875 14.351562 -6.648438 C 13.808594 -7 12.824219 -7.265625 11.398438 -7.441406 L 7.511719 -7.945312 C 5.335938 -8.230469 3.757812 -8.773438 2.773438 -9.5625 C 1.789062 -10.355469 1.296875 -11.480469 1.296875 -12.9375 C 1.296875 -14.039062 1.628906 -14.996094 2.292969 -15.804688 C 2.957031 -16.613281 3.894531 -17.234375 5.113281 -17.675781 C 6.328125 -18.117188 7.753906 -18.335938 9.382812 -18.335938 C 11 -18.335938 12.433594 -18.097656 13.679688 -17.617188 C 14.929688 -17.136719 15.925781 -16.46875 16.667969 -15.613281 C 17.410156 -14.757812 17.816406 -13.753906 17.878906 -12.601562 L 14.664062 -12.601562 C 14.585938 -13.238281 14.316406 -13.792969 13.859375 -14.257812 C 13.402344 -14.71875 12.792969 -15.085938 12.023438 -15.347656 C 11.257812 -15.613281 10.351562 -15.742188 9.3125 -15.742188 C 7.839844 -15.742188 6.664062 -15.503906 5.785156 -15.023438 C 4.902344 -14.542969 4.464844 -13.886719 4.464844 -13.054688 C 4.464844 -12.414062 4.722656 -11.925781 5.242188 -11.578125 C 5.765625 -11.234375 6.671875 -10.976562 7.96875 -10.800781 L 11.902344 -10.246094 C 13.519531 -10.023438 14.796875 -9.722656 15.730469 -9.347656 C 16.667969 -8.972656 17.335938 -8.46875 17.734375 -7.835938 C 18.136719 -7.203125 18.335938 -6.390625 18.335938 -5.398438 C 18.335938 -4.246094 17.984375 -3.238281 17.28125 -2.375 C 16.574219 -1.511719 15.589844 -0.84375 14.316406 -0.371094 C 13.042969 0.101562 11.558594 0.335938 9.863281 0.335938 C 8.136719 0.335938 6.613281 0.0742188 5.292969 -0.445312 C 3.972656 -0.964844 2.929688 -1.6875 2.160156 -2.617188 C 1.390625 -3.542969 0.976562 -4.625 0.910156 -5.855469 Z M 0.910156 -5.855469 "/></g></g></g><g fill="#000000" fill-opacity="1"><g transform="translate(124.748272, 31.499998)"><g><path d="M 1.65625 -13.585938 L 4.777344 -13.585938 L 4.777344 -8.855469 L 4.632812 -8.375 L 4.632812 -5.640625 L 4.777344 -4.800781 L 4.777344 3.960938 L 1.65625 3.960938 Z M 3.574219 -6.792969 C 3.878906 -8.230469 4.382812 -9.484375 5.089844 -10.546875 C 5.792969 -11.613281 6.660156 -12.441406 7.691406 -13.03125 C 8.722656 -13.625 9.871094 -13.921875 11.136719 -13.921875 C 12.464844 -13.921875 13.640625 -13.621094 14.664062 -13.019531 C 15.6875 -12.421875 16.488281 -11.589844 17.0625 -10.523438 C 17.640625 -9.460938 17.929688 -8.214844 17.929688 -6.792969 C 17.929688 -5.382812 17.640625 -4.144531 17.0625 -3.070312 C 16.488281 -2 15.6875 -1.164062 14.664062 -0.5625 C 13.640625 0.0351562 12.464844 0.335938 11.136719 0.335938 C 9.871094 0.335938 8.726562 0.0390625 7.703125 -0.550781 C 6.679688 -1.144531 5.8125 -1.976562 5.101562 -3.046875 C 4.386719 -4.121094 3.878906 -5.367188 3.574219 -6.792969 Z M 14.761719 -6.792969 C 14.761719 -7.703125 14.570312 -8.507812 14.195312 -9.203125 C 13.820312 -9.898438 13.304688 -10.445312 12.648438 -10.835938 C 11.992188 -11.226562 11.238281 -11.425781 10.390625 -11.425781 C 9.542969 -11.425781 8.746094 -11.226562 8.003906 -10.835938 C 7.261719 -10.445312 6.609375 -9.898438 6.046875 -9.203125 C 5.488281 -8.507812 5.03125 -7.703125 4.679688 -6.792969 C 5.03125 -5.878906 5.488281 -5.074219 6.046875 -4.378906 C 6.609375 -3.683594 7.261719 -3.140625 8.003906 -2.746094 C 8.746094 -2.355469 9.542969 -2.160156 10.390625 -2.160156 C 11.238281 -2.160156 11.992188 -2.355469 12.648438 -2.746094 C 13.304688 -3.140625 13.820312 -3.683594 14.195312 -4.378906 C 14.570312 -5.074219 14.761719 -5.878906 14.761719 -6.792969 Z M 14.761719 -6.792969 "/></g></g></g><g fill="#000000" fill-opacity="1"><g transform="translate(143.612311, 31.499998)"><g><path d="M 14.328125 0 L 13.800781 -5.039062 L 14.425781 -6.792969 L 13.800781 -8.519531 L 14.328125 -13.585938 L 17.542969 -13.585938 L 16.824219 -6.792969 L 17.542969 0 Z M 15.289062 -6.792969 C 14.984375 -5.367188 14.480469 -4.121094 13.777344 -3.046875 C 13.070312 -1.976562 12.203125 -1.144531 11.171875 -0.550781 C 10.140625 0.0390625 8.992188 0.335938 7.726562 0.335938 C 6.398438 0.335938 5.222656 0.0351562 4.199219 -0.5625 C 3.175781 -1.164062 2.375 -2 1.800781 -3.070312 C 1.222656 -4.144531 0.9375 -5.382812 0.9375 -6.792969 C 0.9375 -8.214844 1.222656 -9.460938 1.800781 -10.523438 C 2.375 -11.589844 3.175781 -12.421875 4.199219 -13.019531 C 5.222656 -13.621094 6.398438 -13.921875 7.726562 -13.921875 C 8.992188 -13.921875 10.140625 -13.625 11.171875 -13.03125 C 12.203125 -12.441406 13.074219 -11.613281 13.789062 -10.546875 C 14.5 -9.484375 15 -8.230469 15.289062 -6.792969 Z M 4.105469 -6.792969 C 4.105469 -5.878906 4.292969 -5.074219 4.667969 -4.378906 C 5.042969 -3.683594 5.558594 -3.140625 6.214844 -2.746094 C 6.871094 -2.355469 7.625 -2.160156 8.472656 -2.160156 C 9.335938 -2.160156 10.136719 -2.355469 10.871094 -2.746094 C 11.609375 -3.140625 12.261719 -3.683594 12.828125 -4.378906 C 13.394531 -5.074219 13.847656 -5.878906 14.183594 -6.792969 C 13.847656 -7.703125 13.394531 -8.507812 12.828125 -9.203125 C 12.261719 -9.898438 11.609375 -10.445312 10.871094 -10.835938 C 10.136719 -11.226562 9.335938 -11.425781 8.472656 -11.425781 C 7.625 -11.425781 6.871094 -11.226562 6.214844 -10.835938 C 5.558594 -10.445312 5.042969 -9.898438 4.667969 -9.203125 C 4.292969 -8.507812 4.105469 -7.703125 4.105469 -6.792969 Z M 4.105469 -6.792969 "/></g></g></g><g fill="#000000" fill-opacity="1"><g transform="translate(162.500349, 31.499998)"><g><path d="M 16.65625 -5.351562 C 16.496094 -4.230469 16.054688 -3.242188 15.335938 -2.386719 C 14.617188 -1.53125 13.695312 -0.863281 12.574219 -0.382812 C 11.457031 0.0976562 10.207031 0.335938 8.832031 0.335938 C 7.265625 0.335938 5.882812 0.0351562 4.691406 -0.5625 C 3.5 -1.164062 2.566406 -2 1.894531 -3.070312 C 1.222656 -4.144531 0.886719 -5.382812 0.886719 -6.792969 C 0.886719 -8.199219 1.222656 -9.441406 1.894531 -10.511719 C 2.566406 -11.585938 3.5 -12.421875 4.691406 -13.019531 C 5.882812 -13.621094 7.265625 -13.921875 8.832031 -13.921875 C 10.207031 -13.921875 11.457031 -13.679688 12.574219 -13.199219 C 13.695312 -12.71875 14.617188 -12.050781 15.335938 -11.195312 C 16.054688 -10.339844 16.496094 -9.34375 16.65625 -8.207031 L 13.511719 -8.207031 C 13.289062 -9.230469 12.753906 -10.03125 11.902344 -10.609375 C 11.054688 -11.183594 10.03125 -11.472656 8.832031 -11.472656 C 7.871094 -11.472656 7.03125 -11.285156 6.3125 -10.90625 C 5.59375 -10.53125 5.035156 -9.996094 4.644531 -9.300781 C 4.253906 -8.605469 4.054688 -7.769531 4.054688 -6.792969 C 4.054688 -5.832031 4.253906 -5 4.644531 -4.296875 C 5.035156 -3.59375 5.59375 -3.050781 6.3125 -2.675781 C 7.03125 -2.300781 7.871094 -2.113281 8.832031 -2.113281 C 10.046875 -2.113281 11.078125 -2.40625 11.929688 -3 C 12.777344 -3.59375 13.304688 -4.375 13.511719 -5.351562 Z M 16.65625 -5.351562 "/></g></g></g><g fill="#000000" fill-opacity="1"><g transform="translate(179.876382, 31.499998)"><g><path d="M 9.070312 0.335938 C 7.488281 0.335938 6.078125 0.0351562 4.847656 -0.5625 C 3.617188 -1.164062 2.648438 -2 1.945312 -3.070312 C 1.238281 -4.144531 0.886719 -5.390625 0.886719 -6.816406 C 0.886719 -8.222656 1.21875 -9.460938 1.882812 -10.523438 C 2.546875 -11.589844 3.46875 -12.421875 4.644531 -13.019531 C 5.820312 -13.621094 7.167969 -13.921875 8.6875 -13.921875 C 10.207031 -13.921875 11.523438 -13.578125 12.636719 -12.898438 C 13.746094 -12.21875 14.609375 -11.265625 15.214844 -10.03125 C 15.824219 -8.800781 16.128906 -7.351562 16.128906 -5.6875 L 3.335938 -5.6875 L 3.335938 -8.0625 L 14.566406 -8.0625 L 13.007812 -7.175781 C 12.960938 -8.070312 12.746094 -8.839844 12.371094 -9.480469 C 11.996094 -10.121094 11.492188 -10.613281 10.859375 -10.957031 C 10.226562 -11.300781 9.480469 -11.472656 8.617188 -11.472656 C 7.703125 -11.472656 6.90625 -11.289062 6.226562 -10.921875 C 5.546875 -10.550781 5.015625 -10.035156 4.632812 -9.371094 C 4.246094 -8.707031 4.054688 -7.921875 4.054688 -7.007812 C 4.054688 -6 4.285156 -5.128906 4.738281 -4.390625 C 5.195312 -3.65625 5.84375 -3.09375 6.683594 -2.699219 C 7.523438 -2.308594 8.519531 -2.113281 9.671875 -2.113281 C 10.710938 -2.113281 11.777344 -2.277344 12.863281 -2.605469 C 13.953125 -2.933594 14.910156 -3.390625 15.742188 -3.984375 L 15.742188 -1.726562 C 14.910156 -1.089844 13.898438 -0.585938 12.707031 -0.214844 C 11.515625 0.152344 10.304688 0.335938 9.070312 0.335938 Z M 9.070312 0.335938 "/></g></g></g><g clip-path="url(#8c263f6759)"><path fill="#000000" d="M 3.316406 36.117188 C 3.371094 36.867188 2.835938 37.757812 3.1875 38.757812 C 4.511719 42.558594 12.003906 41.191406 15.355469 40.160156 C 19.816406 38.71875 26.441406 34.0625 26.046875 29.003906 C 25.421875 28.859375 24.664062 30.75 24.007812 30.960938 C 21.5 26.304688 14.972656 23.910156 10 24.566406 C 6.933594 20.292969 15.261719 15.039062 12.671875 6.378906 C 12.523438 5.875 11.804688 4.425781 12.5 4.058594 C 12.855469 3.871094 13.421875 3.917969 13.929688 4.046875 C 23.585938 6.902344 29.0625 18.722656 26.320312 28.269531 C 29.777344 20.789062 25.195312 9.371094 17.699219 5.199219 C 16.117188 4.316406 13.304688 2.816406 12.054688 3.878906 C 11.523438 4.332031 11.644531 4.863281 11.960938 5.867188 C 15.457031 15.050781 6.558594 19.183594 9.582031 24.609375 C 5.46875 24.976562 3.296875 27.078125 2.8125 29.859375 C 2.210938 33.308594 3.273438 35.507812 3.316406 36.117188 Z M 10.535156 24.84375 C 13.769531 24.625 17.808594 25.679688 20.652344 27.742188 C 21.945312 28.683594 23.066406 29.695312 23.625 31.128906 C 18.914062 32.34375 13.480469 28.246094 10.210938 24.863281 C 10.210938 24.863281 10.375 24.847656 10.535156 24.84375 Z M 3.289062 29.417969 C 4.152344 26.625 6.964844 25.191406 9.785156 24.914062 C 13.417969 28.804688 18.316406 32.859375 23.824219 31.375 C 21.820312 34.820312 17.9375 35.796875 14.636719 38.414062 C 14.257812 39.019531 15.367188 38.394531 15.535156 38.375 C 18.597656 37.226562 22.632812 34.898438 24.5625 32.296875 C 25.03125 31.753906 25.074219 31.675781 24.671875 32.476562 C 22.667969 36.5 17.355469 39.75 12.179688 40.558594 C 9.101562 41.039062 5.121094 40.984375 3.851562 38.953125 C 3.335938 38.132812 3.863281 37.054688 3.75 35.921875 C 3.621094 34.585938 2.546875 33.761719 3.289062 29.417969 Z M 27.601562 27.917969 C 29.625 24.734375 30.234375 19.488281 30.929688 15.578125 C 30.941406 19.011719 29.933594 24.007812 28.316406 27.125 C 30.472656 25.855469 32.742188 20.675781 34.460938 18.519531 C 33.371094 21.238281 30.929688 24.933594 29.082031 26.953125 C 28.390625 27.65625 27.601562 28.167969 27.601562 27.917969 Z M 27.601562 27.917969 " fill-opacity="1" fill-rule="nonzero"/></g></svg>